<svg id="visual" viewBox="0 0 960 540" width="960" height="540" xmlns="http://www.w3.org/2000/svg" xmlns:xlink="http://www.w3.org/1999/xlink" version="1.1"><rect x="0" y="0" width="960" height="540" fill="#001220"></rect><path d="M0 381L22.8 382.7C45.7 384.3 91.3 387.7 137 392.7C182.7 397.7 228.3 404.3 274 406.2C319.7 408 365.3 405 411.2 396.7C457 388.3 503 374.7 548.8 376.3C594.7 378 640.3 395 686 396C731.7 397 777.3 382 823 377C868.7 372 914.3 377 937.2 379.5L960 382L960 541L937.2 541C914.3 541 868.7 541 823 541C777.3 541 731.7 541 686 541C640.3 541 594.7 541 548.8 541C503 541 457 541 411.2 541C365.3 541 319.7 541 274 541C228.3 541 182.7 541 137 541C91.3 541 45.7 541 22.8 541L0 541Z" fill="#fa7268"></path><path d="M0 398L22.8 404.8C45.7 411.7 91.3 425.3 137 427.3C182.7 429.3 228.3 419.7 274 421.8C319.7 424 365.3 438 411.2 443.2C457 448.3 503 444.7 548.8 439.7C594.7 434.7 640.3 428.3 686 429C731.7 429.7 777.3 437.3 823 438C868.7 438.7 914.3 432.3 937.2 429.2L960 426L960 541L937.2 541C914.3 541 868.7 541 823 541C777.3 541 731.7 541 686 541C640.3 541 594.7 541 548.8 541C503 541 457 541 411.2 541C365.3 541 319.7 541 274 541C228.3 541 182.7 541 137 541C91.3 541 45.7 541 22.8 541L0 541Z" fill="#ef5f67"></path><path d="M0 444L22.8 443.3C45.7 442.7 91.3 441.3 137 444.8C182.7 448.3 228.3 456.7 274 454.8C319.7 453 365.3 441 411.2 434C457 427 503 425 548.8 429.8C594.7 434.7 640.3 446.3 686 449.2C731.7 452 777.3 446 823 447.7C868.7 449.3 914.3 458.7 937.2 463.3L960 468L960 541L937.2 541C914.3 541 868.7 541 823 541C777.3 541 731.7 541 686 541C640.3 541 594.7 541 548.8 541C503 541 457 541 411.2 541C365.3 541 319.7 541 274 541C228.3 541 182.7 541 137 541C91.3 541 45.7 541 22.8 541L0 541Z" fill="#e34c67"></path><path d="M0 464L22.8 464.5C45.7 465 91.3 466 137 465.2C182.7 464.3 228.3 461.7 274 461.8C319.7 462 365.3 465 411.2 467.8C457 470.7 503 473.3 548.8 474.2C594.7 475 640.3 474 686 473C731.7 472 777.3 471 823 471.8C868.7 472.7 914.3 475.3 937.2 476.7L960 478L960 541L937.2 541C914.3 541 868.7 541 823 541C777.3 541 731.7 541 686 541C640.3 541 594.7 541 548.8 541C503 541 457 541 411.2 541C365.3 541 319.7 541 274 541C228.3 541 182.7 541 137 541C91.3 541 45.7 541 22.8 541L0 541Z" fill="#d53867"></path><path d="M0 509L22.8 505.7C45.7 502.3 91.3 495.7 137 495.7C182.7 495.7 228.3 502.3 274 501.8C319.7 501.3 365.3 493.7 411.2 495.5C457 497.3 503 508.7 548.8 509.8C594.7 511 640.3 502 686 499C731.7 496 777.3 499 823 498.3C868.7 497.7 914.3 493.3 937.2 491.2L960 489L960 541L937.2 541C914.3 541 868.7 541 823 541C777.3 541 731.7 541 686 541C640.3 541 594.7 541 548.8 541C503 541 457 541 411.2 541C365.3 541 319.7 541 274 541C228.3 541 182.7 541 137 541C91.3 541 45.7 541 22.8 541L0 541Z" fill="#c62368"></path></svg>