<svg id="visual" viewBox="0 0 540 960" width="540" height="960" xmlns="http://www.w3.org/2000/svg" xmlns:xlink="http://www.w3.org/1999/xlink" version="1.1"><rect x="0" y="0" width="540" height="960" fill="#001220"></rect><path d="M0 677L12.8 680.2C25.7 683.3 51.3 689.7 77 698.7C102.7 707.7 128.3 719.3 154 722.7C179.7 726 205.3 721 231.2 706.2C257 691.3 283 666.7 308.8 669.5C334.7 672.3 360.3 702.7 386 704.5C411.7 706.3 437.3 679.7 463 670.7C488.7 661.7 514.3 670.3 527.2 674.7L540 679L540 961L527.2 961C514.3 961 488.7 961 463 961C437.3 961 411.7 961 386 961C360.3 961 334.7 961 308.8 961C283 961 257 961 231.2 961C205.3 961 179.7 961 154 961C128.3 961 102.7 961 77 961C51.3 961 25.7 961 12.8 961L0 961Z" fill="#fa7268"></path><path d="M0 708L12.8 720.2C25.7 732.3 51.3 756.7 77 760.2C102.7 763.7 128.3 746.3 154 750.3C179.7 754.3 205.3 779.7 231.2 788.8C257 798 283 791 308.8 782C334.7 773 360.3 762 386 763.5C411.7 765 437.3 779 463 780.2C488.7 781.3 514.3 769.7 527.2 763.8L540 758L540 961L527.2 961C514.3 961 488.7 961 463 961C437.3 961 411.7 961 386 961C360.3 961 334.7 961 308.8 961C283 961 257 961 231.2 961C205.3 961 179.7 961 154 961C128.3 961 102.7 961 77 961C51.3 961 25.7 961 12.8 961L0 961Z" fill="#ef5f67"></path><path d="M0 789L12.8 787.8C25.7 786.7 51.3 784.3 77 790.7C102.7 797 128.3 812 154 809C179.7 806 205.3 785 231.2 772.7C257 760.3 283 756.7 308.8 765.2C334.7 773.7 360.3 794.3 386 799.2C411.7 804 437.3 793 463 795.8C488.7 798.7 514.3 815.3 527.2 823.7L540 832L540 961L527.2 961C514.3 961 488.7 961 463 961C437.3 961 411.7 961 386 961C360.3 961 334.7 961 308.8 961C283 961 257 961 231.2 961C205.3 961 179.7 961 154 961C128.3 961 102.7 961 77 961C51.3 961 25.7 961 12.8 961L0 961Z" fill="#e34c67"></path><path d="M0 826L12.8 826.7C25.7 827.3 51.3 828.7 77 827.2C102.7 825.7 128.3 821.3 154 821.8C179.7 822.3 205.3 827.7 231.2 832.8C257 838 283 843 308.8 844.3C334.7 845.7 360.3 843.3 386 841.3C411.7 839.3 437.3 837.7 463 839.2C488.7 840.7 514.3 845.3 527.2 847.7L540 850L540 961L527.2 961C514.3 961 488.7 961 463 961C437.3 961 411.7 961 386 961C360.3 961 334.7 961 308.8 961C283 961 257 961 231.2 961C205.3 961 179.7 961 154 961C128.3 961 102.7 961 77 961C51.3 961 25.7 961 12.8 961L0 961Z" fill="#d53867"></path><path d="M0 906L12.8 900.2C25.7 894.3 51.3 882.7 77 882.7C102.7 882.7 128.3 894.3 154 893.3C179.7 892.3 205.3 878.7 231.2 881.8C257 885 283 905 308.8 906.8C334.7 908.7 360.3 892.3 386 887.2C411.7 882 437.3 888 463 887C488.7 886 514.3 878 527.2 874L540 870L540 961L527.2 961C514.3 961 488.7 961 463 961C437.3 961 411.7 961 386 961C360.3 961 334.7 961 308.8 961C283 961 257 961 231.2 961C205.3 961 179.7 961 154 961C128.3 961 102.7 961 77 961C51.3 961 25.7 961 12.8 961L0 961Z" fill="#c62368"></path></svg>